<svg xmlns="http://www.w3.org/2000/svg" xmlns:svg="http://www.w3.org/2000/svg" id="svg8" width="32" height="32" version="1.1" viewBox="0 0 8.467 8.467"><defs id="defs2"><rect id="rect12" width="118.541" height="81.26" x="36.654" y="92.273"/></defs><metadata id="metadata5"/><g id="layer1"><g id="text10" aria-label="11" style="font-style:normal;font-weight:400;font-size:10.5833px;line-height:1.25;font-family:sans-serif;white-space:pre;shape-inside:url(#rect12);fill:#000;fill-opacity:1;stroke:none"><g id="g920" transform="matrix(0.90132276,0,0,0.90132276,-0.0912583,-0.14441581)"><g id="g887" transform="translate(-38.342852,-93.728799)"><path d="m 46.792488,101.76393 -2.822438,0.0787 0.646141,-5.121087 c -0.117133,0.11024 -0.268717,0.21876 -0.454752,0.32556 -0.186034,0.10335 -0.375514,0.19637 -0.568439,0.27905 -0.189479,0.0827 -0.353121,0.14641 -0.490924,0.1912 v -1.01802 c 0.117133,-0.0482 0.251491,-0.11886 0.403075,-0.21187 0.151583,-0.0965 0.301444,-0.19982 0.449583,-0.31006 0.148139,-0.11024 0.279052,-0.21532 0.39274,-0.31523 0.117133,-0.0999 0.19637,-0.17742 0.237711,-0.23254 h 1.11104 z" style="font-style:normal;font-variant:normal;font-weight:400;font-stretch:normal;font-size:10.5833px;line-height:1.25;font-family:'Abyssinica SIL';-inkscape-font-specification:'Abyssinica SIL';white-space:pre;shape-inside:url(#rect12);fill:red;fill-opacity:1;stroke:none" id="path16-3"/><path style="font-style:normal;font-weight:400;font-size:10.5833px;line-height:1.25;font-family:sans-serif;white-space:pre;shape-inside:url(#rect12);fill:green;fill-opacity:1;stroke:green;stroke-width:.264583px;stroke-linecap:butt;stroke-linejoin:miter;stroke-opacity:1" id="path23-0" d="m 43.198504,99.716683 1.082266,0.830077 0.775908,-0.980807 c 0.577656,0.946967 0.238229,1.071007 0.924184,0.0481 l 0.479579,0.890497 1.067987,-0.911837 -0.343362,2.355157 -3.641655,-0.10524 z"/><ellipse style="font-style:normal;font-weight:400;font-size:10.5833px;line-height:1.25;font-family:sans-serif;white-space:pre;shape-inside:url(#rect12);fill:#ff0;fill-opacity:1;stroke:#2b0000;stroke-width:.04;stroke-miterlimit:4;stroke-dasharray:none" id="path854-5" cx="43.099" cy="97.395" rx=".207" ry=".221"/></g><g id="g892" transform="translate(-37.429054,-93.68057)"><path d="m 41.548766,101.7157 -2.822438,0.0787 0.646141,-5.121089 c -0.117133,0.110243 -0.268717,0.218763 -0.454752,0.32556 -0.186034,0.103353 -0.375514,0.19637 -0.568439,0.279052 -0.189479,0.08268 -0.353121,0.146416 -0.490924,0.191202 v -1.018022 c 0.117133,-0.04823 0.251491,-0.118858 0.403075,-0.211873 0.151583,-0.09646 0.301444,-0.199814 0.449583,-0.310057 0.148139,-0.110243 0.279052,-0.215318 0.39274,-0.315226 0.117133,-0.09991 0.19637,-0.177422 0.237711,-0.232543 h 1.11104 z" style="font-style:normal;font-variant:normal;font-weight:400;font-stretch:normal;font-family:'Abyssinica SIL';-inkscape-font-specification:'Abyssinica SIL';fill:green" id="path16"/><path style="fill:red;fill-opacity:1;stroke:red;stroke-width:.264583px;stroke-linecap:butt;stroke-linejoin:miter;stroke-opacity:1" id="path23" d="m 37.954782,99.66845 1.082266,0.83008 0.775908,-0.98081 c 0.577656,0.94697 0.238229,1.07101 0.924184,0.0481 l 0.479579,0.8905 1.067987,-0.91184 -0.343362,2.35516 -3.641655,-0.10524 z"/><ellipse style="fill:#ff0;fill-opacity:1;stroke:#2b0000;stroke-width:.04;stroke-miterlimit:4;stroke-dasharray:none" id="path854" cx="37.856" cy="97.347" rx=".207" ry=".221"/></g></g></g></g></svg>